<?xml version="1.0" standalone="no"?>
<!DOCTYPE svg PUBLIC "-//W3C//DTD SVG 20010904//EN"
 "http://www.w3.org/TR/2001/REC-SVG-20010904/DTD/svg10.dtd">
<svg version="1.0" xmlns="http://www.w3.org/2000/svg"
 width="1024.000000pt" height="1024.000000pt" viewBox="0 0 1024.000000 1024.000000"
 preserveAspectRatio="xMidYMid meet">

<g transform="translate(0.000000,1024.000000) scale(0.100000,-0.100000)"
fill="#000000" stroke="none">
<path d="M1565 5120 l0 -2520 407 0 408 0 2 1722 3 1722 34 -89 c18 -50 105
-279 193 -510 88 -231 270 -715 404 -1075 135 -360 301 -801 368 -980 68 -179
163 -430 211 -557 l88 -233 413 0 414 0 0 2520 0 2520 -385 0 -385 0 0 -1482
c0 -928 -4 -1478 -9 -1472 -6 5 -130 331 -276 724 -578 1552 -692 1855 -783
2080 l-58 145 -525 3 -524 2 0 -2520z"/>
<path d="M5020 5120 l0 -2520 375 0 375 0 2 1808 3 1807 149 -600 c81 -330
283 -1143 448 -1807 l300 -1208 173 0 173 0 281 1128 c253 1016 463 1873 567
2320 21 89 40 162 43 162 3 0 5 -812 3 -1805 l-2 -1805 390 0 390 0 0 2520 0
2520 -584 0 -584 0 -22 -97 c-28 -124 -308 -1333 -491 -2118 -149 -642 -153
-659 -163 -635 -3 8 -55 229 -116 490 -61 261 -174 745 -251 1075 -77 330
-174 744 -215 920 -40 176 -76 330 -79 343 l-5 22 -580 0 -580 0 0 -2520z"/>
</g>
</svg>
